<svg xmlns="http://www.w3.org/2000/svg" version="1.1" xmlns:xlink="http://www.w3.org/1999/xlink" xmlns:svgjs="http://svgjs.dev/svgjs" width="128" height="128" viewBox="0 0 128 128"><g transform="matrix(0.8046875,0,0,0.8046875,12.34337036079809,6.355846710526315)"><svg viewBox="0 0 84 95" data-background-color="#ffffff" preserveAspectRatio="xMidYMid meet" height="144" width="128" xmlns="http://www.w3.org/2000/svg" xmlns:xlink="http://www.w3.org/1999/xlink"><g id="tight-bounds" transform="matrix(1,0,0,1,0.12773679313553998,-0.24049999999999727)"><svg viewBox="0 0 83.74452641372892 95.481" height="95.481" width="83.74452641372892"><g><svg viewBox="0 0 83.74452641372892 95.481" height="95.481" width="83.74452641372892"><g><svg viewBox="0 0 83.74452641372892 95.481" height="95.481" width="83.74452641372892"><g id="textblocktransform"><svg viewBox="0 0 83.74452641372892 95.481" height="95.481" width="83.74452641372892" id="textblock"><g><svg viewBox="0 0 83.74452641372892 95.481" height="95.481" width="83.74452641372892"><g><svg viewBox="0 0 83.74452641372892 95.481" height="95.481" width="83.74452641372892"><g><svg xmlns="http://www.w3.org/2000/svg" xmlns:xlink="http://www.w3.org/1999/xlink" xml:space="preserve" version="1.1" style="shape-rendering:geometricPrecision;text-rendering:geometricPrecision;image-rendering:optimizeQuality;" viewBox="0 0 8484 9673" x="0" y="0" fill-rule="evenodd" clip-rule="evenodd" height="95.481" width="83.74452641372892" class="icon-icon-0" data-fill-palette-color="accent" id="icon-0"><g fill="#000000" data-fill-palette-color="accent"><path class="" d="M8484 6809l0 2753c0 61-50 111-111 111l-8262 0c-61 0-111-50-111-111l0-235c0-62 50-111 111-111l373 0 4288-4289-4450-4452c-21-21-32-50-32-78l0-286c0-61 49-111 111-111l7972 0c61 0 111 50 111 111l0 2748c0 61-50 111-111 111l-317 0c-61 0-111-50-111-111 0-1162-678-2126-1911-2126l-3197 0 3628 3628c43 43 43 114 0 157l-3556 3556 3125 0c824 0 1550-533 1811-1301 15-46 58-75 105-75l423 0c61 0 111 50 111 111z" fill="#ffffff" fill-rule="nonzero" data-fill-palette-color="accent"></path></g></svg></g></svg></g></svg></g></svg></g></svg></g></svg></g><defs></defs></svg><rect width="83.74452641372892" height="95.481" fill="none" stroke="none" visibility="hidden"></rect></g></svg></g></svg>