<svg xmlns="http://www.w3.org/2000/svg" version="1.1" xmlns:xlink="http://www.w3.org/1999/xlink" xmlns:svgjs="http://svgjs.dev/svgjs" width="2000" height="767" viewBox="0 0 2000 767"><g transform="matrix(1,0,0,1,-1.2121212121212466,-1.0404695047861878)"><svg viewBox="0 0 396 152" data-background-color="#ffffff" preserveAspectRatio="xMidYMid meet" height="767" width="2000" xmlns="http://www.w3.org/2000/svg" xmlns:xlink="http://www.w3.org/1999/xlink"><g id="tight-bounds" transform="matrix(1,0,0,1,0.2400000000000091,0.20619473888852724)"><svg viewBox="0 0 395.52 151.58761052222295" height="151.58761052222295" width="395.52"><g><svg viewBox="0 0 628.519397347977 240.88732203389824" height="151.58761052222295" width="395.52"><g transform="matrix(1,0,0,1,232.9993973479771,74.43767896311064)"><svg viewBox="0 0 395.52 92.01196410767695" height="92.01196410767695" width="395.52"><g id="textblocktransform"><svg viewBox="0 0 395.52 92.01196410767695" height="92.01196410767695" width="395.52" id="textblock"><g><svg viewBox="0 0 395.52 92.01196410767695" height="92.01196410767695" width="395.52"><g transform="matrix(1,0,0,1,0,0)"><svg width="395.52" viewBox="4.300000190734863 -35 150.44000244140625 35" height="92.01196410767695" data-palette-color="#000000"><path d="M9.15-4.2L25.15-4.2 25.15 0 4.3 0 4.3-34.65 9.15-34.65 9.15-4.2ZM52.65 0L30.25 0 30.25-34.65 51.4-34.65 51.4-30.5 35.1-30.5 35.1-20.2 49.6-20.2 49.6-16.15 35.1-16.15 35.1-4.15 52.65-4.15 52.65 0ZM75.75-14.5L75.75-14.5Q76.55-13.5 77.77-11.88 79-10.25 80.3-8.28 81.59-6.3 82.87-4.15 84.15-2 85.05 0L85.05 0 79.75 0Q78.75-1.9 77.57-3.85 76.4-5.8 75.2-7.58 74-9.35 72.82-10.9 71.65-12.45 70.7-13.6L70.7-13.6Q70.05-13.55 69.37-13.55 68.7-13.55 68-13.55L68-13.55 63.65-13.55 63.65 0 58.8 0 58.8-34.15Q60.85-34.65 63.37-34.83 65.9-35 68-35L68-35Q75.3-35 79.12-32.25 82.95-29.5 82.95-24.05L82.95-24.05Q82.95-20.6 81.12-18.15 79.3-15.7 75.75-14.5ZM68.4-30.75L68.4-30.75Q65.3-30.75 63.65-30.6L63.65-30.6 63.65-17.55 67.09-17.55Q69.59-17.55 71.59-17.8 73.59-18.05 74.97-18.75 76.34-19.45 77.09-20.73 77.84-22 77.84-24.1L77.84-24.1Q77.84-26.05 77.09-27.35 76.34-28.65 75.07-29.4 73.8-30.15 72.07-30.45 70.34-30.75 68.4-30.75ZM112.64 0L90.24 0 90.24-34.65 111.39-34.65 111.39-30.5 95.09-30.5 95.09-20.2 109.59-20.2 109.59-16.15 95.09-16.15 95.09-4.15 112.64-4.15 112.64 0ZM138.24-4.8L134.34-4.8Q133.84-6 133.02-7.85 132.19-9.7 131.24-11.85 130.29-14 129.22-16.28 128.14-18.55 127.19-20.58 126.24-22.6 125.42-24.2 124.59-25.8 124.09-26.65L124.09-26.65Q123.54-20.75 123.19-13.88 122.84-7 122.59 0L122.59 0 117.84 0Q118.04-4.5 118.29-9.08 118.54-13.65 118.87-18.07 119.19-22.5 119.57-26.7 119.94-30.9 120.39-34.65L120.39-34.65 124.64-34.65Q125.99-32.45 127.54-29.45 129.09-26.45 130.64-23.18 132.19-19.9 133.64-16.63 135.09-13.35 136.29-10.65L136.29-10.65Q137.49-13.35 138.94-16.63 140.39-19.9 141.94-23.18 143.49-26.45 145.04-29.45 146.59-32.45 147.94-34.65L147.94-34.65 152.19-34.65Q153.89-17.9 154.74 0L154.74 0 149.99 0Q149.74-7 149.39-13.88 149.04-20.75 148.49-26.65L148.49-26.65Q147.99-25.8 147.17-24.2 146.34-22.6 145.39-20.58 144.44-18.55 143.37-16.28 142.29-14 141.34-11.85 140.39-9.7 139.56-7.85 138.74-6 138.24-4.8L138.24-4.8Z" opacity="1" transform="matrix(1,0,0,1,0,0)" fill="#ffffff" class="wordmark-text-0" data-fill-palette-color="primary" id="text-0"></path></svg></g></svg></g></svg></g></svg></g><g><svg viewBox="0 0 211.27758090929316 240.88732203389824" height="240.88732203389824" width="211.27758090929316"><g><svg xmlns="http://www.w3.org/2000/svg" xmlns:xlink="http://www.w3.org/1999/xlink" xml:space="preserve" version="1.1" style="shape-rendering:geometricPrecision;text-rendering:geometricPrecision;image-rendering:optimizeQuality;" viewBox="0 0 8484 9673" x="0" y="0" fill-rule="evenodd" clip-rule="evenodd" height="240.88732203389824" width="211.27758090929316" class="icon-icon-0" data-fill-palette-color="accent" id="icon-0"><g fill="#000000" data-fill-palette-color="accent"><path class="" d="M8484 6809l0 2753c0 61-50 111-111 111l-8262 0c-61 0-111-50-111-111l0-235c0-62 50-111 111-111l373 0 4288-4289-4450-4452c-21-21-32-50-32-78l0-286c0-61 49-111 111-111l7972 0c61 0 111 50 111 111l0 2748c0 61-50 111-111 111l-317 0c-61 0-111-50-111-111 0-1162-678-2126-1911-2126l-3197 0 3628 3628c43 43 43 114 0 157l-3556 3556 3125 0c824 0 1550-533 1811-1301 15-46 58-75 105-75l423 0c61 0 111 50 111 111z" fill="#ffffff" fill-rule="nonzero" data-fill-palette-color="accent"></path></g></svg></g></svg></g></svg></g><defs></defs></svg><rect width="395.52" height="151.58761052222295" fill="none" stroke="none" visibility="hidden"></rect></g></svg></g></svg>